<svg width="74" height="68" viewBox="0 0 74 68" fill="none" xmlns="http://www.w3.org/2000/svg">
<path d="M18.4305 12.4081L16.2381 0.554108H4.95756C3.90039 0.554108 2.88652 0.970405 2.13899 1.71142C1.39145 2.45244 0.971497 3.45748 0.971497 4.50544C0.971497 5.5534 1.39145 6.55844 2.13899 7.29946C2.88652 8.04048 3.90039 8.45677 4.95756 8.45677H9.62125L17.5934 51.9214H63.8716L73.8368 12.4081H18.4305ZM57.6534 44.0188H24.2103L19.8654 20.3108H63.7122L57.6534 44.0188Z" fill="#ffffff"/>
<path d="M26.8809 67.7268C30.1831 67.7268 32.86 65.0732 32.86 61.7998C32.86 58.5264 30.1831 55.8728 26.8809 55.8728C23.5788 55.8728 20.9018 58.5264 20.9018 61.7998C20.9018 65.0732 23.5788 67.7268 26.8809 67.7268Z" fill="#ffffff"/>
<path d="M54.7834 67.7268C58.0855 67.7268 60.7625 65.0732 60.7625 61.7998C60.7625 58.5264 58.0855 55.8728 54.7834 55.8728C51.4812 55.8728 48.8043 58.5264 48.8043 61.7998C48.8043 65.0732 51.4812 67.7268 54.7834 67.7268Z" fill="#ffffff"/>
</svg>
